# xmcd
#
# Track frame offsets: 
#        150
#        21495
#        40967
#        63100
#        78087
#        96875
#        113485
#        128457
#        148547
#        162330
#        187915
#        202147
#
# Disc length: 2943 seconds
#
# Revision: 0
# Processed by: cddbd v1.5.2PL0 Copyright (c) Steve Scherf et al.
# Submitted via: ExactAudioCopy v0.99pb3
#
DISCID=970b7d0c
DTITLE=Tomcat Courtney - Downsville Blues
DYEAR=2008
DGENRE=Blues
TTITLE0=Cook My Breakfast
TTITLE1=Four Wheel Drive
TTITLE2=Wolf That Howls
TTITLE3=Shake It Up Baby
TTITLE4=I Wonder
TTITLE5=Downsville Blues
TTITLE6=I'm So Glad
TTITLE7=Disaster Blues
TTITLE8=Meet Me In The Bottom
TTITLE9=Cryin' Won't Help You
TTITLE10=Bottle It Up And Go
TTITLE11=Railroad Avenue
EXTD=
EXTT0=
EXTT1=
EXTT2=
EXTT3=
EXTT4=
EXTT5=
EXTT6=
EXTT7=
EXTT8=
EXTT9=
EXTT10=
EXTT11=
PLAYORDER=
